# xmcd
#
# Track frame offsets:
#  150
#  15655
#  31180
#  45072
#  57527
#  71370
#  85802
#  97105
#  115542
#  132142
#  146115
#  159105
#  171305
#  190457
#  203812
#  218237
#  231730
#
# Disc length: 3283 seconds
#
# Revision: 1
# Processed by: cddbd v1.5.1PL2 Copyright (c) Steve Scherf et al.
# Submitted via: Collectorz.com_Music_Collector 6.10
#
DISCID=ea0cd111
DTITLE=Don Williams - Pure Gold, Cd 1
DYEAR=1900
DGENRE=Country
TTITLE0=I Recall A Gipsy Woman
TTITLE1=Till The River All Runs Dry
TTITLE2=Say It Again
TTITLE3=Some Broken Hearts Never Mend
TTITLE4=I'm Just A Country Boy
TTITLE5=Tulsa Time
TTITLE6=It Must Be Love
TTITLE7=I Believe In You
TTITLE8=Love Is On A Roll
TTITLE9=Stay Young
TTITLE10=Lay Down Beside Me
TTITLE11=Ghost Story
TTITLE12=Good Ole Boys Like Me
TTITLE13=Love Me Over Again
TTITLE14=Amanda
TTITLE15=The Shelter Of Your Eyes
TTITLE16=She's In Love With A Rodeo Man
EXTD=
EXTT0=
EXTT1=
EXTT2=
EXTT3=
EXTT4=
EXTT5=
EXTT6=
EXTT7=
EXTT8=
EXTT9=
EXTT10=
EXTT11=
EXTT12=
EXTT13=
EXTT14=
EXTT15=
EXTT16=
PLAYORDER=
